<svg xmlns="http://www.w3.org/2000/svg" viewBox="0 0 400 260" role="img" aria-labelledby="title desc">
  <title id="title">Баланс на гуми и джанти</title>
  <desc id="desc">Стенд за баланс, гума и измервателен сензор.</desc>
  <defs>
    <linearGradient id="bg" x1="0%" y1="0%" x2="100%" y2="100%">
      <stop offset="0%" stop-color="#081627" />
      <stop offset="100%" stop-color="#123a6d" />
    </linearGradient>
  </defs>
  <rect width="400" height="260" rx="24" fill="url(#bg)" />
  <path d="M60 208h280" stroke="#0f79ff" stroke-width="6" stroke-linecap="round" opacity="0.35" />
  <g transform="translate(84 70)">
    <rect x="0" y="0" width="112" height="150" rx="20" fill="#0f2545" stroke="#56c2ff" stroke-width="4" />
    <rect x="18" y="24" width="76" height="56" rx="10" fill="#081627" />
    <path d="M32 44h48l-8 16h-32z" fill="#0f79ff" opacity="0.65" />
    <rect x="34" y="100" width="44" height="10" rx="5" fill="#56c2ff" />
    <rect x="22" y="118" width="68" height="10" rx="5" fill="#56c2ff" opacity="0.4" />
  </g>
  <g transform="translate(210 66)">
    <circle cx="80" cy="106" r="60" fill="#0a1a33" stroke="#ff8a3d" stroke-width="6" />
    <circle cx="80" cy="106" r="38" fill="#081627" stroke="#56c2ff" stroke-width="6" />
    <circle cx="80" cy="106" r="16" fill="#56c2ff" />
    <path d="M80 48l12 24h-24z" fill="#ff8a3d" />
    <path d="M80 164l-12-24h24z" fill="#ff8a3d" />
    <path d="M28 106l24-12v24z" fill="#ff8a3d" />
    <path d="M132 106l-24 12v-24z" fill="#ff8a3d" />
  </g>
  <path d="M250 72l58-20 12 24-58 20z" fill="#56c2ff" opacity="0.6" />
  <path d="M288 66l26-8" stroke="#56c2ff" stroke-width="6" stroke-linecap="round" />
  <path d="M294 184h40l8 24h-40z" fill="#ff8a3d" opacity="0.7" />
  <path d="M72 188h42l-10 24H62z" fill="#0f79ff" opacity="0.6" />
</svg>
